<svg width="24" height="24" viewBox="0 0 24 24" fill="none" xmlns="http://www.w3.org/2000/svg">
<path fill-rule="evenodd" clip-rule="evenodd" d="M16 2C13.8783 2 11.8434 2.84285 10.3431 4.34315C10.1364 4.54994 9.94205 4.76689 9.76072 4.99282C9.34984 5.50445 9.00407 6.06395 8.7306 6.65834C8.37569 6.47698 8.00257 6.33092 7.61652 6.22295C6.78254 5.98971 5.90795 5.93976 5.05284 6.07654C4.19772 6.21331 3.38235 6.53357 2.66273 7.01531C1.94311 7.49705 1.3363 8.12885 0.883983 8.86732C0.431665 9.60579 0.14456 10.4334 0.0423925 11.2934C-0.0597755 12.1533 0.0254145 13.0251 0.29211 13.849C0.558805 14.6729 1.00069 15.4293 1.5874 16.0663C2.17411 16.7032 2.89174 17.2056 3.691 17.5389L4.46083 15.693C3.92799 15.4708 3.44957 15.1359 3.05843 14.7113C2.66729 14.2866 2.3727 13.7824 2.1949 13.2331C2.01711 12.6838 1.96031 12.1026 2.02842 11.5293C2.09654 10.956 2.28794 10.4043 2.58948 9.91196C2.89103 9.41964 3.29557 8.99844 3.77532 8.67728C4.25506 8.35612 4.79865 8.14262 5.36872 8.05143C5.9388 7.96025 6.52185 7.99355 7.07784 8.14904C7.44698 8.25228 7.79837 8.40776 8.12165 8.60996C8.04122 9.06583 8 9.53079 8 10H10C10 8.6216 10.4743 7.2921 11.3325 6.22971C11.4201 6.12147 11.5115 6.01611 11.6067 5.91386C12.2747 5.19625 13.1084 4.65327 14.0349 4.33243C14.9613 4.0116 15.9522 3.92268 16.921 4.07345C17.8898 4.22422 18.8068 4.6101 19.5919 5.19732C20.3771 5.78453 21.0063 6.5552 21.4247 7.44189C21.843 8.32858 22.0377 9.30428 21.9917 10.2836C21.9457 11.263 21.6604 12.2161 21.1608 13.0597C20.6611 13.9033 19.9624 14.6115 19.1257 15.1226L20.1681 16.8294C21.2838 16.148 22.2154 15.2037 22.8816 14.0789C23.5477 12.9541 23.9281 11.6833 23.9895 10.3775C24.0508 9.07169 23.7913 7.77075 23.2335 6.5885C22.6757 5.40624 21.8367 4.37869 20.7898 3.59573C19.743 2.81278 18.5203 2.29827 17.2286 2.09724C16.8208 2.03377 16.41 2.00216 16 2.00208V2ZM9.39443 15.4472L6.39443 21.4472L4.60557 20.5528L7.60557 14.5528L9.39443 15.4472ZM10.8944 21.4472L13.8944 15.4472L12.1056 14.5528L9.10557 20.5528L10.8944 21.4472ZM18.3944 15.4472L15.3944 21.4472L13.6056 20.5528L16.6056 14.5528L18.3944 15.4472Z" fill="black"/>
</svg>
